<?xml version="1.0" encoding="UTF-8" standalone="no"?>
<svg
   width="1228"
   height="2500"
   viewBox="154.12 89.5 301.086 613"
   version="1.1"
   id="svg20"
   sodipodi:docname="icon.svg"
   inkscape:version="1.2.2 (732a01da63, 2022-12-09)"
   xmlns:inkscape="http://www.inkscape.org/namespaces/inkscape"
   xmlns:sodipodi="http://sodipodi.sourceforge.net/DTD/sodipodi-0.dtd"
   xmlns="http://www.w3.org/2000/svg"
   xmlns:svg="http://www.w3.org/2000/svg">
  <defs
     id="defs24" />
  <sodipodi:namedview
     id="namedview22"
     pagecolor="#505050"
     bordercolor="#eeeeee"
     borderopacity="1"
     inkscape:showpageshadow="0"
     inkscape:pageopacity="0"
     inkscape:pagecheckerboard="0"
     inkscape:deskcolor="#505050"
     showgrid="false"
     inkscape:zoom="0.2834084"
     inkscape:cx="2667.5286"
     inkscape:cy="1114.9987"
     inkscape:window-width="2498"
     inkscape:window-height="1417"
     inkscape:window-x="1912"
     inkscape:window-y="-8"
     inkscape:window-maximized="1"
     inkscape:current-layer="svg20" />
  <path
     fill="#FFF"
     stroke="#000"
     stroke-miterlimit="10"
     d="M154.163 190.001v413.957s-6.67 99.021 146.207 95.655c0 0 137.517 16.585 154.837-92.351V344.164s-10.649-53.795-104.347-53.795c0 0-64.443-1.346-67.748 19.278l-.673-103.673s20.625-23.256 47.185.673l-.673 61.812h126.256v-78.458S454.9 85.043 306.552 90.979c-.063 0-141.067-11.934-152.389 99.022z"
     id="path14" />
  <path
     stroke="#000000"
     stroke-miterlimit="10"
     d="m 253.185,433.883 0.0382,190.10247 -9.2e-4,-0.29277 -0.0191,10.46854 6.2238,-0.0322 6.70516,0.056 17.13821,-0.0251 6.37416,0.0191 4.05812,-0.0382 0.0573,-99.27871 c 0,0 10.72558,-13.69375 36.21553,-12.04019 l 0.0765,-50.81081 c 0,0 22.032,-11.322 62.853,-11.322 v -47.247 c 0,0 -15.178,-21.603 -50.429,2.51 0,0 -40.27,22.032 -48.777,-2.693 h -33.231 l -7.47572,0.006 0.01,3.29851 v 6.978 h -3.611 v 7.711 l 3.78015,-0.0135 z"
     id="path16"
     sodipodi:nodetypes="cccccccccccccccccccccccc" />
  <path
     fill="#ffffff"
     stroke="#000000"
     stroke-miterlimit="10"
     d="M 297.01847,490.39376 296.942,519.502 h 29.682 v -40.27 l -0.10798,-7.16829 -10.63937,-0.15295 -0.0836,6.89224 c 0,0 5.47032,1.45342 8.20089,5.05646 l -1.90452,2.70118 c -0.85866,1.39197 -8.4859,-11.09988 -25.0709,3.83312 z"
     id="path18"
     sodipodi:nodetypes="cccccccccc" />
</svg>
