<?xml version="1.0" encoding="UTF-8" standalone="no"?>
<svg
   viewBox="0 0 32 32"
   version="1.1"
   id="svg20"
   sodipodi:docname="film-solid.svg"
   width="32"
   height="32"
   inkscape:version="1.2.2 (732a01da63, 2022-12-09)"
   xmlns:inkscape="http://www.inkscape.org/namespaces/inkscape"
   xmlns:sodipodi="http://sodipodi.sourceforge.net/DTD/sodipodi-0.dtd"
   xmlns="http://www.w3.org/2000/svg"
   xmlns:svg="http://www.w3.org/2000/svg">
  <defs
     id="defs24" />
  <sodipodi:namedview
     id="namedview22"
     pagecolor="#505050"
     bordercolor="#eeeeee"
     borderopacity="1"
     inkscape:showpageshadow="0"
     inkscape:pageopacity="0"
     inkscape:pagecheckerboard="0"
     inkscape:deskcolor="#505050"
     showgrid="false"
     inkscape:zoom="15.65625"
     inkscape:cx="40.942116"
     inkscape:cy="31.808383"
     inkscape:window-width="2498"
     inkscape:window-height="1417"
     inkscape:window-x="1912"
     inkscape:window-y="-8"
     inkscape:window-maximized="1"
     inkscape:current-layer="svg20" />
  <!--! Font Awesome Pro 6.4.0 by @fontawesome - https://fontawesome.com License - https://fontawesome.com/license (Commercial License) Copyright 2023 Fonticons, Inc. -->
  <path
     d="M -2.9990666e-6,4.5166787 C -2.9990666e-6,1.9902163 1.7973323,-0.06386804 4.0079871,-0.06386804 H 28.055892 c 2.210654,0 4.00798,2.05408434 4.00798,4.58054674 V 27.419443 C 32.063872,29.945905 30.266546,32 28.055892,32 H 4.0079871 C 1.7973323,32 -2.9990666e-6,29.945905 -2.9990666e-6,27.419443 Z M 3.0059896,23.984036 v 2.290268 c 0,0.629827 0.4508957,1.145139 1.0019975,1.145139 H 6.011973 c 0.5511019,0 1.0019975,-0.515312 1.0019975,-1.145139 v -2.290268 c 0,-0.629828 -0.4508956,-1.14514 -1.0019975,-1.14514 H 4.0079871 c -0.5511018,0 -1.0019975,0.515312 -1.0019975,1.14514 z m 23.0459064,-1.14514 c -0.551102,0 -1.001997,0.515312 -1.001997,1.14514 v 2.290268 c 0,0.629827 0.450895,1.145139 1.001997,1.145139 h 2.003996 c 0.551092,0 1.001988,-0.515312 1.001988,-1.145139 v -2.290268 c 0,-0.629828 -0.450896,-1.14514 -1.001988,-1.14514 z M 3.0059896,14.822922 V 17.1132 c 0,0.629827 0.4508957,1.145139 1.0019975,1.145139 H 6.011973 c 0.5511019,0 1.0019975,-0.515312 1.0019975,-1.145139 v -2.290278 c 0,-0.629827 -0.4508956,-1.14514 -1.0019975,-1.14514 H 4.0079871 c -0.5511018,0 -1.0019975,0.515313 -1.0019975,1.14514 z m 23.0459064,-1.14514 c -0.551102,0 -1.001997,0.515313 -1.001997,1.14514 V 17.1132 c 0,0.629827 0.450895,1.145139 1.001997,1.145139 h 2.003996 c 0.551092,0 1.001988,-0.515312 1.001988,-1.145139 v -2.290278 c 0,-0.629827 -0.450896,-1.14514 -1.001988,-1.14514 z M 3.0059896,5.6618179 v 2.2902785 c 0,0.6298271 0.4508957,1.1451392 1.0019975,1.1451392 H 6.011973 c 0.5511019,0 1.0019975,-0.5153121 1.0019975,-1.1451392 V 5.6618179 c 0,-0.6298271 -0.4508956,-1.1451392 -1.0019975,-1.1451392 H 4.0079871 c -0.5511018,0 -1.0019975,0.5153121 -1.0019975,1.1451392 z M 26.051896,4.5166787 c -0.551102,0 -1.001997,0.5153121 -1.001997,1.1451392 v 2.2902785 c 0,0.6298271 0.450895,1.1451392 1.001997,1.1451392 h 2.003996 c 0.551092,0 1.001988,-0.5153121 1.001988,-1.1451392 V 5.6618179 c 0,-0.6298271 -0.450896,-1.1451392 -1.001988,-1.1451392 z M 10.019963,6.8069571 v 4.5805569 c 0,1.266808 0.895535,2.290268 2.003986,2.290268 h 8.015972 c 1.108459,0 2.003994,-1.02346 2.003994,-2.290268 V 6.8069571 c 0,-1.2668081 -0.895535,-2.2902784 -2.003994,-2.2902784 h -8.015972 c -1.108451,0 -2.003986,1.0234703 -2.003986,2.2902784 z m 2.003986,11.4513819 c -1.108451,0 -2.003986,1.023471 -2.003986,2.290279 v 4.580557 c 0,1.266808 0.895535,2.290268 2.003986,2.290268 h 8.015972 c 1.108459,0 2.003994,-1.02346 2.003994,-2.290268 v -4.580557 c 0,-1.266808 -0.895535,-2.290279 -2.003994,-2.290279 z"
     id="path18"
     style="stroke-width:0.0669487" />
</svg>
